<svg xmlns="http://www.w3.org/2000/svg" xml:space="preserve" width="2000" height="386" data-id="lg_XG8vGYBRbIj9ndF9I4" data-version="1" viewBox="0 0 2000 386"><g data-padding="20"><g transform="translate(10 4.917)scale(.97452)"><rect width="784.784" height="174.02" x="223.49" y="-272.32" fill="none" rx="0" ry="0" transform="translate(400 484.4)"/><path d="M626.072 242.59v-2.92h45.28q23.25 0 34.65 6.7 11.39 6.7 11.39 23.94 0 19.1-13.86 26.34-12.93 6.62-36.19 6.62h-1.23v41.27h19.25v2.93h-59.29v-2.93h10.01V242.59Zm44.2 0h-4.16v57.75h3.23q9.24 0 12.79-6.31 3.54-6.31 3.54-20.48v-7.39q0-13.09-3.31-18.33t-12.09-5.24m52.66-7.85v-2.77h37.11v56.36q2.46-7.08 7.55-11.39 5.08-4.32 15.4-4.32 23.87 0 23.87 25.72v46.36h8.62v2.77h-43.58v-2.77h6.31v-50.05q0-9.24-1.23-11.94-1.23-2.69-4.47-2.69-4.92 0-8.7 6.46-3.77 6.47-3.77 15.71v42.51h6.62v2.77h-43.73v-2.77h8.47V234.74Zm144.61 82.39v-13.09q0-14.94-1.62-21.79-1.61-6.85-7.46-6.85-3.39 0-5.47 1.92-2.08 1.93-3 6.39-1.39 6.93-1.39 21.1v12.01q0 16.79 1 20.18 1 3.38 2.08 5.54 1.69 3.7 6.62 3.7 6.01 0 7.86-6.93 1.38-4.93 1.38-22.18m-9.55 31.88q-19.25 0-29.1-9.86-9.86-9.85-9.86-28.26 0-18.4 10.55-28.33 10.55-9.94 29.65-9.94 19.09 0 28.49 9.17 9.39 9.16 9.39 27.95 0 39.27-39.12 39.27m43.73-72.07v-2.78h37.11v14.17q2.47-7.08 7.55-11.39 5.08-4.32 15.4-4.32 23.87 0 23.87 25.72v46.36h8.62v2.77h-43.58v-2.77h6.32v-50.05q0-9.24-1.24-11.94-1.23-2.69-4.46-2.69-4.93 0-8.7 6.46-3.78 6.47-3.78 15.71v42.51h6.63v2.77h-43.74v-2.77h8.47v-67.76Zm135.07 72.07q-19.87 0-29.8-10.24t-9.93-28.49 11.16-27.95q11.17-9.71 28.41-9.71 34.96 0 33.58 35.12h-43.43v6q0 15.09 3.85 22.79t13.4 7.7q17.86 0 23.4-19.09l2.78.46q-2.93 11.09-10.55 17.25-7.63 6.16-22.87 6.16m-9.86-51.9v7.55h15.86v-7.55q0-12.47-1.46-17.02-1.46-4.54-5.85-4.54t-6.47 4.85-2.08 16.71m52.67 51.9h-1.85v-27.57h1.85q4 13.4 10.78 18.79t16.94 5.39q15.71 0 15.71-10.01 0-4.31-3.85-6.47-6.01-3.39-15.4-5.23-10.47-2.78-17.56-7.4-8.47-5.54-8.47-17.55t7.39-19.18q7.4-7.16 19.72-7.16 7.54 0 15.55 3.55 2.93 1.23 4.47 1.23t2.61-1.08q1.08-1.08 2.62-4h1.7v23.56h-1.85q-7.86-20.02-24.33-20.02-7.24 0-10.78 2.54-3.55 2.54-3.55 6.39 0 2.31 1.08 3.62t1.7 1.92q.61.62 2 1.31 1.38.7 2.31 1.08.92.39 2.85 1 1.92.62 2.85.77 10.47 2.62 15.09 4.54 4.62 1.93 8.78 4.7 8.47 5.85 8.47 18.87 0 13.01-7.7 19.71t-21.1 6.7q-9.55 0-18.48-4.47-1.85-1.23-2.93-1.23-3.39 0-6.62 5.7m61.45-114.27v-2.77h37.11v56.36q2.46-7.08 7.55-11.39 5.08-4.32 15.4-4.32 23.87 0 23.87 25.72v46.36h8.62v2.77h-43.58v-2.77h6.31v-50.05q0-9.24-1.23-11.94-1.23-2.69-4.47-2.69-4.92 0-8.7 6.46-3.77 6.47-3.77 15.71v42.51h6.62v2.77h-43.73v-2.77h8.47V234.74Zm144.6 82.39v-13.09q0-14.94-1.62-21.79-1.61-6.85-7.46-6.85-3.39 0-5.47 1.92-2.08 1.93-3 6.39-1.39 6.93-1.39 21.1v12.01q0 16.79 1 20.18 1 3.38 2.08 5.54 1.69 3.7 6.62 3.7 6.01 0 7.86-6.93 1.38-4.93 1.38-22.18m-9.55 31.88q-19.25 0-29.1-9.86-9.86-9.85-9.86-28.26 0-18.4 10.55-28.33 10.55-9.94 29.65-9.94 19.09 0 28.49 9.17 9.39 9.16 9.39 27.95 0 39.27-39.12 39.27m99.63-42.97q0-15.86-1.54-21.33-1.54-5.46-6-5.46-4.47 0-8.01 5.77-3.54 5.78-3.54 15.48v28.18q0 6.62 2.61 11.24 2.62 4.62 7.7 4.62 5.09 0 6.93-6.77 1.85-6.78 1.85-23.72Zm-55.9-31.88h36.5v12.17q6-13.71 21.25-13.71 13.24 0 20.56 9.55 7.31 9.55 7.31 28.95 0 19.41-7.93 28.65t-23.79 9.24q-7.39 0-11.09-1.85-3.69-1.85-6-5.7v39.89h19.86v2.77h-56.98v-2.77h8.47V276.94h-8.16Z"/><path fill-rule="evenodd" d="M1126.522 45.26V30.14L1081.162-.1H954.91l-47.628 30.24v15.12h7.56V188.9h-7.56v22.68h219.24V188.9h-7.56V45.26Zm-83.16 0h22.68V75.5h-22.68Zm-37.8 0h22.68V75.5h-22.68Zm-75.6 0h22.68V75.5h-22.68Zm60.48 128.52h-60.48V90.62h60.48Zm0-98.28h-22.68V45.26h22.68Zm113.4 98.28h-98.28V90.62h98.28Zm0-98.28h-22.68V45.26h22.68Z"/></g><path fill="transparent" stroke="transparent" d="M607.5 0h785v386h-785z"/></g></svg>